<?xml version="1.0" ?><svg viewBox="0 0 64 64" xmlns="http://www.w3.org/2000/svg"><defs><style>.cls-1{fill:none;stroke:#000;stroke-linecap:round;stroke-linejoin:round;stroke-width:2px;}</style></defs><title/><g data-name="Layer 11" id="Layer_11"><g data-name="&lt;Group&gt;" id="_Group_"><path class="cls-1" d="M15.39,31.42c0-.45,0-.89,0-1.32A10.68,10.68,0,0,1,16.8,25a8.94,8.94,0,0,1,1.92-2.32A9.16,9.16,0,0,1,23,20.59a9.05,9.05,0,0,1,7.13,1.61A11,11,0,0,1,33,25.3c.34.53.66,1.06,1,1.61a14.38,14.38,0,0,1,1.85,6.15,19.4,19.4,0,0,1-.2,3.81c-.21,1.48-.52,2.93-.87,4.37-.52,2.11-1,4.21-1.58,6.32-.63,2.52-1.2,5.07-1.74,7.61l0,.09H31.3c-3.23-.61-6.47-1.11-9.72-1.57-2.18-.31-4.38-.6-6.56-1a29,29,0,0,1-4-1,14.27,14.27,0,0,1-5.2-3,15.39,15.39,0,0,1-1.85-2c-.47-.62-.94-1.24-1.36-1.89A9.51,9.51,0,0,1,2,35.23a9.05,9.05,0,0,1,2.11-2.72,9.32,9.32,0,0,1,2-1.38,9.23,9.23,0,0,1,4.13-.95,11.6,11.6,0,0,1,4.93,1.14Z" data-name="&lt;Path&gt;" id="_Path_"/><path class="cls-1" d="M7.7,45.86a8.23,8.23,0,0,1-3.31-7.52,7.88,7.88,0,0,1,.92-2.81" data-name="&lt;Path&gt;" id="_Path_2"/></g><g data-name="&lt;Group&gt;" id="_Group_2"><path class="cls-1" d="M21.3,18.3a11.34,11.34,0,0,1,6.83-9,10.59,10.59,0,0,1,11.11,2,13.56,13.56,0,0,1,3.4,4.89c0,.08.07.16.1.25.35-.41.68-.81,1-1.18A12.47,12.47,0,0,1,49,11.88a10.5,10.5,0,0,1,8.83,1,10.58,10.58,0,0,1,4.94,7,13,13,0,0,1,.06,5c-.12.73-.24,1.46-.41,2.18A17.26,17.26,0,0,1,59.21,34a22.78,22.78,0,0,1-3.13,3.23,51.08,51.08,0,0,1-4.16,3.2c-2.08,1.46-4.18,2.91-6.27,4.37q-3.76,2.64-7.43,5.41l-.09.06-.07-.08c-.64-.85-1.28-1.69-1.94-2.52" data-name="&lt;Path&gt;" id="_Path_3"/><path class="cls-1" d="M55.91,15.58a7.68,7.68,0,0,1,3.6,5.12,9.84,9.84,0,0,1,.05,3.63c-.09.54-.18,1.07-.3,1.59A12.75,12.75,0,0,1,57,31" data-name="&lt;Path&gt;" id="_Path_4"/></g></g></svg>