<?xml version="1.0" ?><svg enable-background="new 0 0 100 100" id="Livello_1" version="1.1" viewBox="0 0 100 100" xml:space="preserve" xmlns="http://www.w3.org/2000/svg" xmlns:xlink="http://www.w3.org/1999/xlink"><path d="M73.722,23.218h-8.058c-1.688,0-3.061,1.373-3.061,3.061v8.059c0,1.688,1.373,3.061,3.061,3.061h8.058  c1.688,0,3.061-1.373,3.061-3.061v-8.059C76.782,24.591,75.409,23.218,73.722,23.218z M75.782,34.337  c0,1.136-0.924,2.061-2.061,2.061h-8.058c-1.136,0-2.061-0.925-2.061-2.061v-8.059c0-1.136,0.924-2.061,2.061-2.061h8.058  c1.136,0,2.061,0.925,2.061,2.061V34.337z"/><path d="M78.142,15.358H21.858c-3.584,0-6.5,2.916-6.5,6.5v56.283c0,3.584,2.916,6.5,6.5,6.5h56.284c3.584,0,6.5-2.916,6.5-6.5  V21.858C84.642,18.274,81.726,15.358,78.142,15.358z M83.642,78.142c0,3.032-2.467,5.5-5.5,5.5H21.858c-3.033,0-5.5-2.468-5.5-5.5  V45.277h20.874c-0.551,1.479-0.868,3.071-0.868,4.739c0,7.51,6.109,13.619,13.619,13.619s13.62-6.109,13.62-13.619  c0-1.668-0.316-3.261-0.868-4.739h20.907V78.142z M37.364,50.017c0-6.958,5.661-12.619,12.619-12.619  c6.958,0,12.62,5.661,12.62,12.619s-5.661,12.619-12.62,12.619C43.025,62.636,37.364,56.975,37.364,50.017z M83.642,44.277H62.317  c-2.171-4.646-6.876-7.88-12.334-7.88s-10.162,3.234-12.333,7.88H16.358V21.858c0-3.032,2.467-5.5,5.5-5.5h56.284  c3.033,0,5.5,2.468,5.5,5.5V44.277z"/></svg>