<?xml version="1.0" ?><!DOCTYPE svg  PUBLIC '-//W3C//DTD SVG 1.1//EN'  'http://www.w3.org/Graphics/SVG/1.1/DTD/svg11.dtd'><svg enable-background="new 0 0 26 26" id="Слой_1" version="1.1" viewBox="0 0 26 26" xml:space="preserve" xmlns="http://www.w3.org/2000/svg" xmlns:xlink="http://www.w3.org/1999/xlink"><g><path d="M18.3085938,15.2519531c-0.3701172,0-0.6054688,0.1582031-0.7382813,0.2910156l-1.4833984,1.484375   c-0.0117188,0.0117188-0.0751953,0.0429688-0.2216797,0.0429688c-0.8173828,0-2.5527344-0.9091797-4.2890625-2.6464844   c-2.3339844-2.3330078-2.8486328-4.265625-2.6035156-4.5107422l1.484375-1.4833984   c0.9785156-0.9785156-0.7529297-3.0019531-1.8720703-4.1210938C8.0771484,3.8007813,6.3339844,2.1455078,5.203125,2.1455078   c-0.3701172,0-0.6054688,0.1582031-0.7382813,0.2910156l-2.96875,2.96875   c-0.890625,0.890625-0.5732422,2.6201172,0.9453125,5.1396484c1.3105469,2.1757813,3.3828125,4.7246094,5.8359375,7.1777344   C11.8994141,21.3447266,16.6992188,25,19.2568359,25h0.0009766c0.6953125,0,1.1113281-0.2695313,1.3369141-0.4960938   l2.96875-2.96875c0.9785156-0.9775391-0.7529297-3.0009766-1.8720703-4.1201172   C21.1835938,16.9072266,19.4404297,15.2519531,18.3085938,15.2519531z M19.5341797,23.4433594   C19.5126953,23.4648438,19.4306641,23.5,19.2568359,23.5c-1.4931641,0-5.4775391-2.3964844-9.9189453-6.8378906   c-2.3691406-2.3691406-4.3623047-4.8164063-5.6123047-6.890625C2.3291016,7.4521484,2.4482422,6.5742188,2.5566406,6.4658203   l2.7763672-2.7763672c0.3701172,0.1513672,1.1992188,0.6875,2.1914063,1.6796875   c0.9931641,0.9931641,1.5283203,1.8222656,1.6796875,2.1914063L7.9121094,8.8525391   c-1.3837891,1.3857422,0.3798828,4.4091797,2.6035156,6.6318359c1.9023438,1.9033203,3.9521484,3.0859375,5.3496094,3.0859375   c0.6601563,0,1.0615234-0.2617188,1.2822266-0.4824219l1.2919922-1.2919922   c0.3691406,0.1513672,1.1982422,0.6865234,2.1914063,1.6796875c0.9921875,0.9931641,1.5283203,1.8212891,1.6796875,2.1914063   L19.5341797,23.4433594z" fill="#1D1D1B"/><path d="M22.4667969,3.5332031C20.8339844,1.8994141,18.6601563,1,16.3466797,1   c-0.0009766,0-0.0019531,0-0.0019531,0c-0.4140625,0-0.75,0.3359375-0.75,0.75s0.3359375,0.75,0.75,0.75   c0.0009766,0,0.0009766,0,0.0019531,0c1.9130859,0,3.7099609,0.7431641,5.0595703,2.09375   C22.7568359,5.9443359,23.5,7.7412109,23.5,9.6552734c0,0.4140625,0.3359375,0.75,0.75,0.75s0.75-0.3359375,0.75-0.75   C25.0009766,7.3408203,24.1005859,5.1669922,22.4667969,3.5332031z" fill="#1D1D1B"/><path d="M15.3554688,5.4658203c0.0009766,0,0.0009766,0,0.0019531,0   c1.3847656,0,2.6845703,0.5380859,3.6621094,1.5146484c0.9765625,0.9775391,1.5146484,2.2783203,1.5146484,3.6640625   c0,0.4140625,0.3359375,0.75,0.75,0.75s0.75-0.3359375,0.75-0.75c0.0009766-1.7861328-0.6933594-3.4638672-1.9541016-4.7246094   c-1.2607422-1.2597656-2.9375-1.9541016-4.7226563-1.9541016c-0.0009766,0-0.0019531,0-0.0019531,0   c-0.4140625,0-0.75,0.3359375-0.75,0.75S14.9414063,5.4658203,15.3554688,5.4658203z" fill="#1D1D1B"/><path d="M14.3662109,8.4316406c0.0009766,0,0.0009766,0,0.0019531,0   c0.8554688,0,1.6601563,0.3330078,2.2636719,0.9365234c0.6044922,0.6044922,0.9365234,1.4091797,0.9365234,2.265625   c0,0.4140625,0.3359375,0.75,0.75,0.75s0.75-0.3359375,0.75-0.75c0.0009766-1.2568359-0.4882813-2.4384766-1.3759766-3.3261719   C16.8056641,7.4199219,15.625,6.9316406,14.3681641,6.9316406c-0.0009766,0-0.0019531,0-0.0019531,0   c-0.4140625,0-0.75,0.3359375-0.75,0.75S13.9521484,8.4316406,14.3662109,8.4316406z" fill="#1D1D1B"/></g></svg>