<?xml version="1.0" ?><svg height="24px" version="1.1" viewBox="0 0 24 24" width="24px" xmlns="http://www.w3.org/2000/svg" xmlns:sketch="http://www.bohemiancoding.com/sketch/ns" xmlns:xlink="http://www.w3.org/1999/xlink"><title/><desc/><defs/><g fill="none" fill-rule="evenodd" id="miu" stroke="none" stroke-width="1"><g id="Artboard-1" transform="translate(-503.000000, -335.000000)"><g id="slice" transform="translate(215.000000, 119.000000)"/><path d="M518.026245,346.984863 L525.056274,346.984864 L525.056274,355.067505 L504.969604,355.067505 L504.969604,346.984864 L512.005249,346.984864 L512.005249,346 L504,346 L504,354.888889 C504,356 505.1,356 505.1,356 L524.9,356 C524.9,356 526,356 526,354.888889 L526,346 L518.026245,346 L518.026245,346.984863 Z M525,341 L505,341 L505,345 L504,345 L504,341.136364 C504,340 505.1,340 505.1,340 L524.9,340 C524.9,340 526,340 526,341.136364 L526,345 L525,345 L525,341 Z M517.054443,337.979248 L513.010986,337.979248 L513.010986,340 L512,340 L512,338.25 C512,337 513.153846,337 513.153846,337 L516.846154,337 C516.846154,337 518,337 518,338.25 L518,340 L517.054443,340 L517.054443,337.979248 Z M513,346.990631 C513,347.54809 513.443353,348 514.009369,348 L515.990631,348 C516.54809,348 517,347.556647 517,346.990631 L517,345.009369 C517,344.45191 516.556647,344 515.990631,344 L514.009369,344 C513.45191,344 513,344.443353 513,345.009369 L513,346.990631 Z M514,345 L514,347 L516,347 L516,345 L514,345 Z" fill="#000000" id="business-suitcase-outline-stroke"/></g></g></svg>